inDegrees=no
num_controls=7
num_derivatives=13
num_iterations=83
num_multipliers=7
num_parameters=0
num_slacks=7
num_states=26
objective=0.453024
objective_accelerations=0.048908
objective_balance=0.001052
objective_effort=0.037813
objective_height=0.359635
objective_ligament=0.005616
solver_duration=936.027074
status=Solve_Succeeded
success=true
DataType=double
version=3
OpenSimVersion=4.5
endheader
time	/jointset/ground_pelvis/pelvis_tilt/value	/jointset/ground_pelvis/pelvis_tx/value	/jointset/ground_pelvis/pelvis_ty/value	/jointset/hip_r/hip_flexion_r/value	/jointset/hip_r/hip_adduction_r/value	/jointset/hip_r/hip_rotation_r/value	/jointset/back/lumbar_extension/value	/jointset/patellofemoral_r/patellar_flexion_r/value	/jointset/knee_r/knee_flexion_r/value	/jointset/knee_r/knee_adduction_r/value	/jointset/knee_r/knee_rotation_r/value	/jointset/ankle_r/ankle_angle_r/value	/jointset/subtalar_r/subtalar_angle_r/value	/jointset/ground_pelvis/pelvis_tilt/speed	/jointset/ground_pelvis/pelvis_tx/speed	/jointset/ground_pelvis/pelvis_ty/speed	/jointset/hip_r/hip_flexion_r/speed	/jointset/hip_r/hip_adduction_r/speed	/jointset/hip_r/hip_rotation_r/speed	/jointset/back/lumbar_extension/speed	/jointset/patellofemoral_r/patellar_flexion_r/speed	/jointset/knee_r/knee_flexion_r/speed	/jointset/knee_r/knee_adduction_r/speed	/jointset/knee_r/knee_rotation_r/speed	/jointset/ankle_r/ankle_angle_r/speed	/jointset/subtalar_r/subtalar_angle_r/speed	/forceset/tau_hip_flexion_r	/forceset/tau_hip_adduction_r	/forceset/tau_hip_rotation_r	/forceset/tau_knee_flexion_r	/forceset/tau_ankle_angle_r	/forceset/tau_subtalar_angle_r	/forceset/tau_lumbar_extension	lambda_cid13_p0	lambda_cid14_p0	lambda_cid14_p1	lambda_cid14_p2	lambda_cid14_p3	lambda_cid14_p4	lambda_cid14_p5	/jointset/ground_pelvis/pelvis_tilt/accel	/jointset/ground_pelvis/pelvis_tx/accel	/jointset/ground_pelvis/pelvis_ty/accel	/jointset/hip_r/hip_flexion_r/accel	/jointset/hip_r/hip_adduction_r/accel	/jointset/hip_r/hip_rotation_r/accel	/jointset/back/lumbar_extension/accel	/jointset/patellofemoral_r/patellar_flexion_r/accel	/jointset/knee_r/knee_flexion_r/accel	/jointset/knee_r/knee_adduction_r/accel	/jointset/knee_r/knee_rotation_r/accel	/jointset/ankle_r/ankle_angle_r/accel	/jointset/subtalar_r/subtalar_angle_r/accel	gamma_cid13_p0	gamma_cid14_p0	gamma_cid14_p1	gamma_cid14_p2	gamma_cid14_p3	gamma_cid14_p4	gamma_cid14_p5
1.5	-0.07510392551707448	0.02993895308649793	0.8150935035239579	0.8126289424658697	-0.2200795571386558	-0.1362958322565243	-0.627970298566484	0.9490337451566799	0.9490337451566613	-0.06333042654328556	0.1745206678186936	0.3064081676264693	0.1480784798277442	0.44821175374877	0.2213330065561267	0.5166145934962778	-2.008913882677203	0.03311842742344599	-0.1956699330616468	0.7950641536267171	-1.983159538074655	-1.983159538074653	0.4339183882560707	5.258399169414006e-05	-0.5267472799707177	-0.1645784597965493	-0.1553926368510433	0.0080737274068512	0.0190100826276667	-0.3141213307863859	0.02269973711419945	-0.004115702993474565	0.2110561383386332	-8.852607700325196	-35.21063054298747	-7.895422685980808	1.61539684600759	-3.250932232383254	-631.2004776812028	60.67741970595657	0.1595874687007163	0.579669701079823	-0.5049749301181466	-1.027164227884087	-0.1991111537567351	-0.5224423446378106	1.830952561715255	-1.380054713254109	-1.380054713254123	0.5091391985490091	-0.02462233747391767	-0.6834447050302566	-0.4239454587189004	1.410731427873284e-07	7.146957942807823e-08	-1.221338494769186e-06	9.41690337879375e-07	8.882657022694139e-08	2.285597131763033e-07	-8.553103656603625e-07
1.51	-0.07061419624345486	0.0321810512184014	0.8202333767615709	0.7924904455465261	-0.2197591490814874	-0.1382781688043268	-0.6199293457245267	0.9291356132990218	0.929135613298995	-0.05896427920216572	0.174520737387921	0.3011070753178154	0.1464106105331078	0.4496667145852643	0.2270620487134559	0.5112532625762736	-2.018532464019935	0.03095300656701423	-0.200840731997144	0.8130352243110192	-1.996211282205686	-1.996211282205686	0.4392500857116331	-2.344103673079154e-05	-0.5333884258886178	-0.1689587579112456	-0.1485654394176349	0.006594793619039837	0.01873459831415631	-0.3097485423586009	0.02390497498196979	-0.004621833124407815	0.2046986620442265	-9.894625902720275	-34.53114731638072	-7.810486090123099	1.389654514040802	-3.298717951818539	-626.4507865287612	60.48009686344977	0.1283571214370591	0.565832131640992	-0.5676819313051835	-0.8912304503245353	-0.2266168066023743	-0.5206780997253382	1.766505753894155	-1.229426829197383	-1.229426829197637	0.5359763530434621	0.003446163949471837	-0.6420124288657088	-0.4394897701388409	1.313035968839311e-07	1.12664122324612e-07	-7.436668745005423e-07	1.23480883933078e-06	1.807552173996272e-08	2.39275575009067e-07	-5.707412668113217e-07
1.52	-0.06611193601539901	0.0344797019035948	0.8253164427383111	0.7722633577411908	-0.2194606670838805	-0.1403134692278422	-0.6117114178893033	0.9091146254868037	0.9091146254868022	-0.05454665661969555	0.1745205544567398	0.2957420589712466	0.1447000547008651	0.4507179446342748	0.2326435172141128	0.5052531413217366	-2.026632059876933	0.02873321550995845	-0.2062627082014318	0.8304591522795659	-2.007730728983508	-2.00773072898351	0.4442134365265457	2.083913894053438e-06	-0.539532087554352	-0.1731157673176992	-0.1417382419842275	0.005115859831173635	0.01845911400084923	-0.3053757539307937	0.02511021284971836	-0.005127963255464258	0.1983411857498274	-10.94342358012494	-33.85225304255932	-7.723383715597713	1.160975018024026	-3.362277655685944	-621.7079064375589	60.34176569312766	0.07884131120413215	0.550154969745222	-0.6327329970246907	-0.7233671307370669	-0.2099851938815542	-0.5726777983959279	1.721524018564324	-1.073595242612486	-1.07359524261249	0.435469870419016	-0.004312341663941022	-0.5839478545971861	-0.3792877170704195	1.263002583137398e-07	1.256925888751721e-07	-5.721108754271117e-07	1.314715091162327e-06	-6.853091710216134e-09	2.435090717643429e-07	-4.739254285406467e-07
1.53	-0.06160122106049278	0.03683340175780665	0.8303363849757619	0.7519628662894121	-0.2191846257969903	-0.1424042409002674	-0.6033220362593992	0.8889861377287032	0.8889861377287127	-0.05008122378752014	0.1745211182389775	0.2903181650183251	0.1429491121999186	0.4513539043766699	0.2380686866996269	0.4986357664325413	-2.033211306851557	0.02646234235520714	-0.2118772213552958	0.8473197199133251	-2.017699743919781	-2.017699743919783	0.4488637505277407	9.818909550424692e-05	-0.5451582618692601	-0.1770412975218366	-0.1348584759266307	0.003358454768239055	0.01825070741054751	-0.3013348276006528	0.02654639224768904	-0.005663349208826121	0.1919649232876945	-11.99306402804356	-33.12057989914024	-7.643857440486584	0.9382000550858033	-3.457973229442193	-617.2409283000407	60.28388228613741	0.04531196742699275	0.5345388229779962	-0.6911228084396137	-0.5869514617928164	-0.2374421820030135	-0.5534674365820756	1.653705067770755	-0.9185180903326285	-0.9185180903327996	0.4783052784178349	0.01488880118238973	-0.5386542036747818	-0.3944682194018168	1.263610150350799e-07	1.087945993081355e-07	-7.258027238735915e-07	1.168083327772779e-06	1.690463206620431e-08	2.408550556247883e-07	-5.765974296344832e-07
